<?xml version="1.0" encoding="UTF-8" standalone="no"?>
<!DOCTYPE svg PUBLIC "-//W3C//DTD SVG 1.1//EN" "http://www.w3.org/Graphics/SVG/1.1/DTD/svg11.dtd">
<svg width="100%" height="100%" viewBox="0 0 2049 2049" version="1.1" xmlns="http://www.w3.org/2000/svg" xmlns:xlink="http://www.w3.org/1999/xlink" xml:space="preserve" xmlns:serif="http://www.serif.com/" style="fill-rule:evenodd;clip-rule:evenodd;stroke-linecap:round;stroke-linejoin:round;stroke-miterlimit:1.5;">
    <g transform="matrix(1,0,0,1,-8550,-1)">
        <g id="Artboard1" transform="matrix(1,0,0,1,8550.86,1.92933)">
            <rect x="0" y="0" width="2048" height="2048" style="fill:none;"/>
            <clipPath id="_clip1">
                <rect x="0" y="0" width="2048" height="2048"/>
            </clipPath>
            <g clip-path="url(#_clip1)">
                <g transform="matrix(0.783856,-0.783856,0.783856,0.783856,-618.353,1003.64)">
                    <g transform="matrix(-0.464433,0.649853,0.649853,0.464433,852.279,-490.365)">
                        <g>
                            <g transform="matrix(1.34508,0.977589,-0.541324,0.744819,-2287.87,-2398.73)">
                                <path d="M2720.28,1308.55L2720.28,502.62L2877.78,502.62L2877.78,1308.55C2877.78,1352.01 2842.49,1387.3 2799.03,1387.3C2755.57,1387.3 2720.28,1352.01 2720.28,1308.55" style="fill:rgb(162,131,108);stroke:black;stroke-width:26.89px;"/>
                            </g>
                            <g transform="matrix(2.02767,2.58277e-16,-2.58277e-16,2.02767,-1205.43,-376.688)">
                                <g transform="matrix(0.89768,0.651933,-0.403893,0.556141,238.03,-727.265)">
                                    <rect x="1425.48" y="484.941" width="89.022" height="84.452" style="fill:rgb(159,159,159);stroke:black;stroke-width:19.31px;stroke-linecap:butt;stroke-linejoin:miter;stroke-miterlimit:6;"/>
                                </g>
                                <g transform="matrix(0.89768,0.651933,-0.403893,0.556141,197.08,-865.727)">
                                    <rect x="1425.48" y="484.941" width="89.022" height="84.452" style="fill:rgb(159,159,159);stroke:black;stroke-width:19.31px;stroke-linecap:butt;stroke-linejoin:miter;stroke-miterlimit:6;"/>
                                </g>
                                <g transform="matrix(0.61598,0.447308,-0.539035,0.742296,691.088,-327.336)">
                                    <path d="M1077.48,376.457C1003.04,358.562 765.282,529.617 765.282,529.617C893.096,265.602 1077.48,260.428 1077.48,260.428L1303.35,260.428L1303.35,463.123L1077.48,463.123C1077.48,463.123 1077.49,395.144 1077.48,376.457Z" style="fill:rgb(159,159,159);stroke:black;stroke-width:21.14px;stroke-linecap:butt;stroke-linejoin:miter;stroke-miterlimit:6;"/>
                                </g>
                                <g transform="matrix(0.566959,0.41175,-0.902303,1.24243,1050.21,-694.215)">
                                    <rect x="1425.48" y="484.941" width="89.022" height="84.452" style="fill:rgb(159,159,159);stroke:black;stroke-width:14.93px;stroke-linecap:butt;stroke-linejoin:miter;stroke-miterlimit:6;"/>
                                </g>
                            </g>
                        </g>
                    </g>
                    <g transform="matrix(0.464433,-0.649853,-0.649853,-0.464433,1216.97,2611.57)">
                        <g>
                            <g transform="matrix(1.34508,0.977589,-0.541324,0.744819,-2287.87,-2398.73)">
                                <path d="M2720.28,1308.55L2720.28,502.62L2877.78,502.62L2877.78,1308.55C2877.78,1352.01 2842.49,1387.3 2799.03,1387.3C2755.57,1387.3 2720.28,1352.01 2720.28,1308.55" style="fill:rgb(162,131,108);stroke:black;stroke-width:26.89px;"/>
                            </g>
                            <g transform="matrix(2.02767,2.58277e-16,-2.58277e-16,2.02767,-1205.43,-376.688)">
                                <g transform="matrix(0.89768,0.651933,-0.403893,0.556141,238.03,-727.265)">
                                    <rect x="1425.48" y="484.941" width="89.022" height="84.452" style="fill:rgb(159,159,159);stroke:black;stroke-width:19.31px;stroke-linecap:butt;stroke-linejoin:miter;stroke-miterlimit:6;"/>
                                </g>
                                <g transform="matrix(0.89768,0.651933,-0.403893,0.556141,197.08,-865.727)">
                                    <rect x="1425.48" y="484.941" width="89.022" height="84.452" style="fill:rgb(159,159,159);stroke:black;stroke-width:19.31px;stroke-linecap:butt;stroke-linejoin:miter;stroke-miterlimit:6;"/>
                                </g>
                                <g transform="matrix(0.61598,0.447308,-0.539035,0.742296,691.088,-327.336)">
                                    <path d="M1077.48,376.457C1003.04,358.562 765.282,529.617 765.282,529.617C893.096,265.602 1077.48,260.428 1077.48,260.428L1303.35,260.428L1303.35,463.123L1077.48,463.123C1077.48,463.123 1077.49,395.144 1077.48,376.457Z" style="fill:rgb(159,159,159);stroke:black;stroke-width:21.14px;stroke-linecap:butt;stroke-linejoin:miter;stroke-miterlimit:6;"/>
                                </g>
                                <g transform="matrix(0.566959,0.41175,-0.902303,1.24243,1050.21,-694.215)">
                                    <rect x="1425.48" y="484.941" width="89.022" height="84.452" style="fill:rgb(159,159,159);stroke:black;stroke-width:14.93px;stroke-linecap:butt;stroke-linejoin:miter;stroke-miterlimit:6;"/>
                                </g>
                            </g>
                        </g>
                    </g>
                </g>
                <g transform="matrix(0.348715,-0.348715,0.614651,0.614651,-2214.35,2969.65)">
                    <path d="M8344.68,663.296L8344.68,1439.84C8344.68,1511.01 8242.84,1568.79 8117.4,1568.79L6748.61,1568.79C6623.17,1568.79 6521.33,1511.01 6521.33,1439.84L6521.33,663.296C6521.33,592.128 6623.17,534.349 6748.61,534.349L8117.4,534.349C8242.84,534.349 8344.68,592.128 8344.68,663.296ZM8267.63,663.296C8267.63,616.256 8200.31,578.065 8117.4,578.065L6748.61,578.065C6665.7,578.065 6598.38,616.256 6598.38,663.296L6598.38,1439.84C6598.38,1486.88 6665.7,1525.08 6748.61,1525.08L8117.4,1525.08C8200.31,1525.08 8267.63,1486.88 8267.63,1439.84L8267.63,663.296Z"/>
                    <path d="M8267.63,663.296L8267.63,1439.84C8267.63,1486.88 8200.31,1525.08 8117.4,1525.08L6748.61,1525.08C6665.7,1525.08 6598.38,1486.88 6598.38,1439.84L6598.38,663.296C6598.38,616.256 6665.7,578.065 6748.61,578.065L8117.4,578.065C8200.31,578.065 8267.63,616.256 8267.63,663.296Z" style="fill:rgb(212,255,173);"/>
                </g>
            </g>
        </g>
    </g>
</svg>
